<svg width="284" height="233" viewBox="0 0 284 233" fill="none" xmlns="http://www.w3.org/2000/svg">
<rect width="284" height="233" fill="#9810FA"/>
<path d="M48.2727 164.364C41.1212 164.364 34.9697 162.848 29.8182 159.818C24.697 156.758 20.7576 152.515 18 147.091C15.2727 141.667 13.9091 135.424 13.9091 128.364C13.9091 121.212 15.2879 114.939 18.0455 109.545C20.8333 104.121 24.7879 99.8939 29.9091 96.8636C35.0303 93.803 41.1212 92.2727 48.1818 92.2727C54.2727 92.2727 59.6061 93.3788 64.1818 95.5909C68.7576 97.803 72.3788 100.909 75.0455 104.909C77.7121 108.909 79.1818 113.606 79.4545 119H61.1818C60.6667 115.515 59.303 112.712 57.0909 110.591C54.9091 108.439 52.0455 107.364 48.5 107.364C45.5 107.364 42.8788 108.182 40.6364 109.818C38.4242 111.424 36.697 113.773 35.4545 116.864C34.2121 119.955 33.5909 123.697 33.5909 128.091C33.5909 132.545 34.197 136.333 35.4091 139.455C36.6515 142.576 38.3939 144.955 40.6364 146.591C42.8788 148.227 45.5 149.045 48.5 149.045C50.7121 149.045 52.697 148.591 54.4545 147.682C56.2424 146.773 57.7121 145.455 58.8636 143.727C60.0455 141.97 60.8182 139.864 61.1818 137.409H79.4545C79.1515 142.742 77.697 147.439 75.0909 151.5C72.5152 155.53 68.9545 158.682 64.4091 160.955C59.8636 163.227 54.4849 164.364 48.2727 164.364ZM111.216 122.636V163H91.8523V69.9091H110.67V105.5H111.489C113.064 101.379 115.61 98.1515 119.125 95.8182C122.64 93.4545 127.049 92.2727 132.352 92.2727C137.201 92.2727 141.428 93.3333 145.034 95.4545C148.67 97.5455 151.489 100.561 153.489 104.5C155.519 108.409 156.519 113.091 156.489 118.545V163H137.125V122C137.155 117.697 136.064 114.348 133.852 111.955C131.67 109.561 128.61 108.364 124.67 108.364C122.034 108.364 119.701 108.924 117.67 110.045C115.67 111.167 114.095 112.803 112.943 114.955C111.822 117.076 111.246 119.636 111.216 122.636ZM171.727 163V93.1818H191.091V163H171.727ZM181.455 84.1818C178.576 84.1818 176.106 83.2273 174.045 81.3182C172.015 79.3788 171 77.0606 171 74.3636C171 71.697 172.015 69.4091 174.045 67.5C176.106 65.5606 178.576 64.5909 181.455 64.5909C184.333 64.5909 186.788 65.5606 188.818 67.5C190.879 69.4091 191.909 71.697 191.909 74.3636C191.909 77.0606 190.879 79.3788 188.818 81.3182C186.788 83.2273 184.333 84.1818 181.455 84.1818ZM238.148 164.364C230.996 164.364 224.845 162.848 219.693 159.818C214.572 156.758 210.633 152.515 207.875 147.091C205.148 141.667 203.784 135.424 203.784 128.364C203.784 121.212 205.163 114.939 207.92 109.545C210.708 104.121 214.663 99.8939 219.784 96.8636C224.905 93.803 230.996 92.2727 238.057 92.2727C244.148 92.2727 249.481 93.3788 254.057 95.5909C258.633 97.803 262.254 100.909 264.92 104.909C267.587 108.909 269.057 113.606 269.33 119H251.057C250.542 115.515 249.178 112.712 246.966 110.591C244.784 108.439 241.92 107.364 238.375 107.364C235.375 107.364 232.754 108.182 230.511 109.818C228.299 111.424 226.572 113.773 225.33 116.864C224.087 119.955 223.466 123.697 223.466 128.091C223.466 132.545 224.072 136.333 225.284 139.455C226.527 142.576 228.269 144.955 230.511 146.591C232.754 148.227 235.375 149.045 238.375 149.045C240.587 149.045 242.572 148.591 244.33 147.682C246.117 146.773 247.587 145.455 248.739 143.727C249.92 141.97 250.693 139.864 251.057 137.409H269.33C269.027 142.742 267.572 147.439 264.966 151.5C262.39 155.53 258.83 158.682 254.284 160.955C249.739 163.227 244.36 164.364 238.148 164.364Z" fill="white"/>
</svg>
